<svg width="233" height="48" viewBox="0 0 233 48" fill="none" xmlns="http://www.w3.org/2000/svg">
<g clip-path="url(#clip0_8018_6264)">
<rect width="48" height="48" rx="24" fill="#222142"/>
<path d="M32.7614 15.9189C31.681 17.6661 29.0964 19.7172 31.5751 23.2842C33.0477 25.4059 37.7932 28.7984 36.0186 31.2005" stroke="#C4F4D8" stroke-width="0.666721"/>
<path fill-rule="evenodd" clip-rule="evenodd" d="M36.9946 11.4282L38.4163 12.6832C38.8575 13.0735 38.8183 13.7755 38.332 14.1108L36.8142 15.1619C36.677 15.258 36.5691 15.3874 36.5005 15.5403L35.7494 17.2346C35.5141 17.766 34.8494 17.9405 34.3807 17.5974L32.8237 16.4522C32.6943 16.3561 32.5433 16.2973 32.3845 16.2816L30.4627 16.0737C29.8862 16.011 29.5156 15.4305 29.6999 14.8815L30.2921 13.1245C30.3451 12.9656 30.3549 12.797 30.3176 12.6342L29.9098 10.8321C29.7803 10.2576 30.2235 9.71242 30.8138 9.72418L32.71 9.76144C32.8727 9.76536 33.0335 9.72418 33.1747 9.64379L34.8337 8.70449C35.3337 8.42212 35.9671 8.66724 36.1436 9.21434L36.7319 11.0282C36.7829 11.1831 36.8731 11.3204 36.9946 11.4282Z" fill="#C4F4D8"/>
<path fill-rule="evenodd" clip-rule="evenodd" d="M36.1167 11.8184L37.1207 12.7048C37.4325 12.9793 37.405 13.4754 37.0619 13.7127L35.9892 14.4559C35.8932 14.5226 35.8147 14.6147 35.7677 14.7226L35.2362 15.9187C35.0696 16.2933 34.5989 16.4188 34.2695 16.1756L33.1694 15.3658C33.0772 15.2991 32.9713 15.2559 32.8576 15.2442L31.4987 15.0971C31.0908 15.052 30.828 14.6422 30.9594 14.2539L31.3771 13.0126C31.4144 12.9009 31.4202 12.7812 31.3948 12.6655L31.1065 11.3929C31.0143 10.987 31.3281 10.6026 31.7438 10.6105L33.0831 10.636C33.1988 10.6379 33.3106 10.6085 33.4126 10.5536L34.5852 9.8908C34.9382 9.69079 35.3853 9.86531 35.5108 10.2516L35.9265 11.5341C35.9618 11.6439 36.0265 11.7419 36.1128 11.8165L36.1167 11.8184Z" fill="#222142"/>
<path d="M39.3598 34.6499C38.9402 31.9477 38.0166 29.426 36.5851 27.0826C35.1556 24.7393 33.3142 22.9313 31.0611 21.6567C28.806 20.3821 26.2097 19.9252 23.2683 20.286C21.3348 20.586 19.3523 21.4214 17.3169 22.7941C17.1776 22.8921 17.0521 22.9509 16.9404 22.9686C16.6031 23.0196 16.3795 22.6999 16.2717 22.0058C16.1619 21.292 16.1834 16.8995 16.3403 15.5503C16.4089 14.8856 16.4599 14.1914 16.4913 13.4659C16.5227 12.7403 16.4815 12.001 16.3638 11.252C16.2364 10.4264 16.0207 9.77732 15.7167 9.30474C15.2265 8.74783 14.6912 8.51252 14.1088 8.60272C13.7715 8.65566 13.442 8.82235 13.1204 9.10276C8.54164 13.2384 8.64753 20.3174 8.58674 25.9786C8.55733 28.8749 8.77107 31.8066 9.23189 34.7695C10.0045 39.7601 11.2124 44.1683 12.8518 48H34.9614C36.2282 47.047 37.2244 45.8881 37.9519 44.5233C38.7107 43.0996 39.2029 41.5328 39.4285 39.8268C39.654 38.1208 39.6304 36.3952 39.3598 34.6499ZM30.0375 38.0992C29.6277 39.4209 28.8903 40.5779 27.8236 41.5701C26.7568 42.5623 25.341 43.2428 23.5723 43.6134L23.3193 43.6526C22.682 43.7507 22.0623 43.7232 21.4603 43.5663C20.8603 43.4095 20.4406 43.0526 20.1994 42.4937L19.4249 40.6543C19.0052 39.6817 18.6464 38.7659 18.3503 37.909C18.0542 37.0521 17.7522 35.9461 17.4463 34.5911C17.2776 33.5028 17.2384 32.5674 17.3286 31.785C17.4169 31.0026 17.7483 30.3457 18.3189 29.8162C18.8895 29.2848 19.7935 28.8573 21.0309 28.5298C21.4348 28.4102 21.8329 28.318 22.2271 28.2572C23.8037 28.0141 25.1646 28.1474 26.3117 28.6612C27.4569 29.175 28.3707 29.9221 29.0511 30.9026C29.7316 31.883 30.165 32.9733 30.3512 34.1734C30.5513 35.4696 30.4473 36.7775 30.0375 38.0992Z" fill="#C4F4D8"/>
</g>
<path d="M67.2454 34H58.9894V12.464H67.3094C72.6854 12.464 75.9174 14.704 75.9174 18.384C75.9174 20.848 74.6054 22.512 72.5574 23.28C74.7014 23.888 76.1414 25.264 76.1414 27.984C76.1414 32.208 72.3974 34 67.2454 34ZM63.6614 16.304V21.424H67.5334C70.0934 21.424 71.2454 20.528 71.2454 18.768C71.2454 17.168 69.9654 16.304 67.5654 16.304H63.6614ZM63.6614 25.264V30.16H67.5014C69.7734 30.16 71.4694 29.648 71.4694 27.664C71.4694 25.84 70.1574 25.264 67.5334 25.264H63.6614ZM82.1161 15.632C80.6441 15.632 79.4601 14.448 79.4601 12.976C79.4601 11.504 80.6441 10.352 82.1161 10.352C83.5241 10.352 84.7081 11.504 84.7081 12.976C84.7081 14.448 83.5241 15.632 82.1161 15.632ZM89.8601 15.632C88.4201 15.632 87.2361 14.448 87.2361 12.976C87.2361 11.504 88.4201 10.352 89.8601 10.352C91.3001 10.352 92.4841 11.504 92.4841 12.976C92.4841 14.448 91.3001 15.632 89.8601 15.632ZM85.9561 30.032C88.2921 30.032 89.4761 27.952 89.4761 25.488V18.16H94.0201V26.032C94.0201 30.672 91.2681 34.416 85.9561 34.416C80.6761 34.416 77.9241 30.672 77.9241 26.032V18.16H82.4681V25.52C82.4681 27.952 83.6201 30.032 85.9561 30.032ZM103.696 41.744C99.9201 41.744 97.1681 40.144 95.7281 37.2L99.4721 35.152C100.176 36.528 101.584 37.584 103.632 37.584C106.352 37.584 107.92 35.6 107.92 32.656V32.208C107.056 33.488 105.648 34.192 103.696 34.192C98.5441 34.192 96.3041 30.896 96.3041 26.192V18.16H100.784V26.032C100.784 28.336 102.032 29.904 104.272 29.904C106.32 29.904 107.856 28.208 107.856 25.936V18.16H112.464V32.592C112.464 38.128 108.912 41.744 103.696 41.744ZM119.104 15.632C117.632 15.632 116.448 14.448 116.448 12.976C116.448 11.504 117.632 10.352 119.104 10.352C120.512 10.352 121.696 11.504 121.696 12.976C121.696 14.448 120.512 15.632 119.104 15.632ZM126.848 15.632C125.408 15.632 124.224 14.448 124.224 12.976C124.224 11.504 125.408 10.352 126.848 10.352C128.288 10.352 129.472 11.504 129.472 12.976C129.472 14.448 128.288 15.632 126.848 15.632ZM122.944 30.032C125.28 30.032 126.464 27.952 126.464 25.488V18.16H131.008V26.032C131.008 30.672 128.256 34.416 122.944 34.416C117.664 34.416 114.912 30.672 114.912 26.032V18.16H119.456V25.52C119.456 27.952 120.608 30.032 122.944 30.032ZM140.812 34.448C135.948 34.448 132.236 30.672 132.236 26.096C132.236 21.168 135.628 17.712 140.556 17.712C142.156 17.712 143.692 18.288 144.844 19.216L144.876 10.864H149.42V26.096C149.42 30.896 145.772 34.448 140.812 34.448ZM140.812 30.16C143.148 30.16 144.876 28.336 144.876 26.096C144.876 23.856 143.148 22 140.812 22C138.476 22 136.78 23.856 136.78 26.096C136.78 28.336 138.476 30.16 140.812 30.16ZM155.591 15.632C154.119 15.632 152.935 14.448 152.935 12.976C152.935 11.504 154.119 10.352 155.591 10.352C156.999 10.352 158.183 11.504 158.183 12.976C158.183 14.448 156.999 15.632 155.591 15.632ZM163.335 15.632C161.895 15.632 160.711 14.448 160.711 12.976C160.711 11.504 161.895 10.352 163.335 10.352C164.775 10.352 165.959 11.504 165.959 12.976C165.959 14.448 164.775 15.632 163.335 15.632ZM159.431 30.032C161.767 30.032 162.951 27.952 162.951 25.488V18.16H167.495V26.032C167.495 30.672 164.743 34.416 159.431 34.416C154.151 34.416 151.399 30.672 151.399 26.032V18.16H155.943V25.52C155.943 27.952 157.095 30.032 159.431 30.032ZM179.891 34.448C173.587 34.448 168.723 29.456 168.723 23.248C168.723 17.04 173.523 12.08 179.891 12.08C183.571 12.08 187.219 13.936 188.819 17.392L185.011 19.536C183.923 17.616 182.259 16.464 179.699 16.464C176.083 16.464 173.523 19.408 173.523 23.312C173.523 27.344 176.115 30.192 179.891 30.192C182.003 30.192 183.539 29.648 184.531 28.624L184.499 23.856H189.043V30.192C187.475 32.56 184.147 34.448 179.891 34.448ZM193.741 15.792C192.205 15.792 190.925 14.544 190.925 12.976C190.925 11.44 192.205 10.16 193.741 10.16C195.277 10.16 196.525 11.44 196.525 12.976C196.525 14.544 195.277 15.792 193.741 15.792ZM191.469 18.16H196.013V34H191.469V18.16ZM207.014 34.448C202.438 34.448 200.166 31.696 200.166 27.728V22H197.254V18.16H200.166V14.128H204.71V18.16H210.31V22H204.71V27.6C204.71 29.36 205.766 30.384 207.43 30.384C208.358 30.384 209.542 30.096 210.31 29.616V33.68C209.51 34.192 208.134 34.448 207.014 34.448ZM220.227 34.448C215.651 34.448 213.379 31.696 213.379 27.728V22H210.467V18.16H213.379V14.128H217.923V18.16H223.523V22H217.923V27.6C217.923 29.36 218.979 30.384 220.643 30.384C221.571 30.384 222.755 30.096 223.523 29.616V33.68C222.723 34.192 221.347 34.448 220.227 34.448ZM228.098 15.792C226.562 15.792 225.282 14.544 225.282 12.976C225.282 11.44 226.562 10.16 228.098 10.16C229.634 10.16 230.882 11.44 230.882 12.976C230.882 14.544 229.634 15.792 228.098 15.792ZM225.826 18.16H230.37V34H225.826V18.16Z" fill="#222142"/>
<defs>
<clipPath id="clip0_8018_6264">
<rect width="48" height="48" rx="24" fill="white"/>
</clipPath>
</defs>
</svg>
